<?xml version="1.0" encoding="utf-8"?>
<!-- Generator: Adobe Illustrator 26.0.1, SVG Export Plug-In . SVG Version: 6.00 Build 0)  -->
<svg version="1.1" id="Layer_1" xmlns="http://www.w3.org/2000/svg" xmlns:xlink="http://www.w3.org/1999/xlink" x="0px" y="0px"
	 viewBox="0 0 532.86 532.86" style="enable-background:new 0 0 532.86 532.86;" xml:space="preserve">
<style type="text/css">
	.st0{fill:#29ABE2;}
	.st1{fill:#00BF94;}
	.st2{fill:#333333;}
	.st3{fill:#666666;}
	.st4{fill:none;stroke:#1A1A1A;stroke-width:4;stroke-miterlimit:10;}
	.st5{fill:#CCCCCC;}
	.st6{fill:#FFFFFF;}
	.st7{fill:none;stroke:#666666;stroke-width:4;stroke-miterlimit:10;}
	.st8{fill:#1A1A1A;}
	.st9{fill:url(#SVGID_1_);}
	.st10{fill:#0071BC;}
	.st11{fill:url(#SVGID_00000166670316596507873730000017904765808363806117_);}
	.st12{fill:url(#SVGID_00000065032861666206764360000001950085488188719751_);}
	.st13{fill:url(#SVGID_00000100380795633576760640000008868689639805246610_);}
	.st14{fill:url(#SVGID_00000003785317326690629160000013652403381113659009_);}
	.st15{fill:url(#SVGID_00000083049801630411601940000011849430923829924740_);}
	.st16{fill:url(#SVGID_00000113332157208765363150000009601179862442671274_);}
	.st17{fill:url(#SVGID_00000124863000208564907530000007288581607961573016_);}
	.st18{fill:url(#SVGID_00000060740200271091175770000002147540558220235157_);}
	.st19{fill:url(#SVGID_00000032636683900752157520000008985956790009824138_);}
	.st20{fill:url(#SVGID_00000118375186436554465540000007091549763466759611_);}
	.st21{fill:url(#SVGID_00000061467406299614562280000011803462539023106962_);}
	.st22{fill:url(#SVGID_00000119099608963914493150000018365664234849942707_);}
	.st23{fill:url(#SVGID_00000168816734536352843830000008789422064551283622_);}
	.st24{fill:url(#SVGID_00000001621897407358658260000008772871013023496112_);}
	.st25{fill:url(#SVGID_00000026145290297441279750000010448766562061909651_);}
	.st26{fill:none;}
	.st27{fill:#FF0000;}
	.st28{fill:url(#SVGID_00000163034224063924557460000007220043842283126416_);}
	.st29{fill:url(#SVGID_00000136400360300872987190000006122270482042980263_);}
	.st30{fill:#2482C2;}
	.st31{fill:#545454;}
	.st32{fill:url(#SVGID_00000182513502515054404550000005875034459882443942_);}
	.st33{fill:url(#SVGID_00000084506133914359163290000001930243247847411096_);}
	.st34{fill:url(#SVGID_00000012460799833212431260000003030160271832984454_);}
	.st35{fill:url(#SVGID_00000017510732362357860120000010659260713353236875_);}
	.st36{fill:url(#SVGID_00000113336056386351853630000017440024874528625538_);}
	.st37{fill:none;stroke:#000000;stroke-width:13;stroke-miterlimit:10;}
	.st38{font-family:'Montserrat-SemiBold';}
	.st39{font-size:27.7674px;}
	.st40{fill:none;stroke:#000000;stroke-width:2;stroke-miterlimit:10;}
	.st41{fill:none;stroke:#FF0000;stroke-width:13;stroke-miterlimit:10;}
	.st42{fill:none;stroke:#FF0000;stroke-width:4;stroke-miterlimit:10;}
</style>
<g>
	<g>
		<path class="st27" d="M256.72,165.97h17.79v-18.26C274.67,147.72,257.56,148.71,256.72,165.97z"/>
		<path class="st27" d="M256.72,170.32h17.96v18.09h-17.96V170.32z"/>
		<path class="st27" d="M278.03,147.72v18.26h17.78C295.14,148.71,278.03,147.72,278.03,147.72z"/>
		<path class="st27" d="M278.03,170.32h17.94v18.09h-17.94V170.32z"/>
		<g>
			<path class="st27" d="M279.53,58.27l-47.48,58.62V94.78h-17.62v43.89l-49.33,60.8l111.07-81.06l151.5,112.39
				C289.77,188.08,117.12,210.69,60.25,274c-64.76,76.89,53.19,127.31,53.19,127.31c-52.68-45.73-50.51-90.45-19.8-120.26
				c45.64-41.88,100.66-50.25,127.68-55.61c116.09-20.11,203.51,9.37,220.8,15.91l1.01,0.66
				c-214.76-52.42-309.73,26.31-309.73,26.31c159.05-68.85,319.28-18.93,319.28-18.93L279.53,58.27z"/>
		</g>
		<g>
			<g>
				<g transform="translate(91.613048, 208.670141)">
					<g>
						<path class="st27" d="M48.67,86.23h26.12c7.6,0,13.52,1.82,17.72,5.46c4.24,3.61,6.37,8.74,6.37,15.41
							c0,7-2.14,12.45-6.37,16.32c-4.2,3.89-10.12,5.81-17.72,5.81H63.94v16.81H48.67V86.23z M63.94,98.21v19.05h10.08
							c3.36,0,5.95-0.81,7.77-2.45c1.82-1.68,2.73-4.08,2.73-7.21c0-3.08-0.91-5.41-2.73-7c-1.82-1.58-4.41-2.38-7.77-2.38H63.94z"
							/>
					</g>
				</g>
			</g>
			<g>
				<g transform="translate(107.983353, 208.670141)">
					<g>
						<path class="st27" d="M120.38,99.96v7.77c3.26-5.5,8.26-8.3,14.99-8.4v13.31c-4.25-0.42-7.7,0.28-10.36,2.1
							c-2.66,1.79-4.2,4.32-4.62,7.63v23.67H105.6V99.96H120.38z"/>
					</g>
				</g>
			</g>
			<g>
				<g transform="translate(119.532799, 208.670141)">
					<g>
						<path class="st27" d="M147.64,81.19c1.49-1.49,3.36-2.24,5.6-2.24c2.28,0,4.15,0.75,5.6,2.24c1.44,1.45,2.17,3.33,2.17,5.6
							c0,2.24-0.74,4.11-2.17,5.6c-1.45,1.51-3.33,2.24-5.6,2.24c-2.24,0-4.11-0.74-5.6-2.24c-1.45-1.49-2.17-3.36-2.17-5.6
							C145.47,84.52,146.19,82.64,147.64,81.19z M160.53,146.04h-14.71V99.96h14.71V146.04z"/>
					</g>
				</g>
			</g>
			<g>
				<g transform="translate(128.871901, 208.670141)">
					<g>
						<path class="st27" d="M239.9,99.33c5.04,0,9.05,1.61,12.05,4.83c2.98,3.22,4.48,7.49,4.48,12.82v29.06h-14.71v-24.93
							c0-2.75-0.74-4.9-2.17-6.44c-1.4-1.58-3.33-2.38-5.74-2.38c-2.77,0.05-4.95,1.1-6.58,3.15c-1.59,2.01-2.38,4.6-2.38,7.77
							v22.83h-14.78v-24.93c0-2.75-0.7-4.9-2.1-6.44c-1.4-1.58-3.33-2.38-5.74-2.38c-2.8,0.05-5.04,1.1-6.72,3.15
							c-1.65,2.07-2.45,4.66-2.45,7.77v22.83h-14.71V99.96h14.71v7.63c3.12-5.41,8.19-8.16,15.2-8.26c3.68,0,6.88,0.95,9.59,2.8
							c2.7,1.82,4.64,4.34,5.81,7.56C226.63,102.88,232.05,99.44,239.9,99.33z"/>
					</g>
				</g>
			</g>
			<g>
				<g transform="translate(152.044756, 208.670141)">
					<g>
						<path class="st27" d="M279.2,99.47c7.98,0,13.97,2.45,18,7.35c4.01,4.9,5.76,11.63,5.25,20.17h-32.36
							c0.7,2.71,1.98,4.81,3.85,6.3c1.91,1.51,4.24,2.24,7,2.24c4.2,0,7.86-1.56,11-4.69l7.77,7.56c-4.95,5.43-11.66,8.12-20.1,8.12
							c-7.48,0-13.43-2.12-17.86-6.37c-4.39-4.29-6.58-9.96-6.58-17.02c0-7.09,2.19-12.82,6.58-17.16
							C266.19,101.64,272,99.47,279.2,99.47z M269.81,119.01h18.42c0-2.75-0.82-4.99-2.45-6.72c-1.59-1.72-3.71-2.59-6.37-2.59
							c-2.52,0-4.66,0.84-6.37,2.52C271.35,113.9,270.27,116.17,269.81,119.01z"/>
					</g>
				</g>
			</g>
		</g>
		<text transform="matrix(1 0 0 1 135.3813 388.1937)" class="st38 st39">Property Management</text>
	</g>
	<circle class="st40" cx="266.43" cy="266.43" r="248.79"/>
</g>
</svg>
