<?xml version="1.0" encoding="utf-8"?>
<!-- Generator: Adobe Illustrator 26.0.1, SVG Export Plug-In . SVG Version: 6.00 Build 0)  -->
<svg version="1.1" id="Layer_1" xmlns="http://www.w3.org/2000/svg" xmlns:xlink="http://www.w3.org/1999/xlink" x="0px" y="0px"
	 viewBox="0 0 538 538" style="enable-background:new 0 0 538 538;" xml:space="preserve">
<style type="text/css">
	.st0{fill:#29ABE2;}
	.st1{fill:#00BF94;}
	.st2{fill:#333333;}
	.st3{fill:#666666;}
	.st4{fill:none;stroke:#1A1A1A;stroke-width:4;stroke-miterlimit:10;}
	.st5{fill:#CCCCCC;}
	.st6{fill:#FFFFFF;}
	.st7{fill:none;stroke:#666666;stroke-width:4;stroke-miterlimit:10;}
	.st8{fill:#1A1A1A;}
	.st9{fill:url(#SVGID_1_);}
	.st10{fill:#0071BC;}
	.st11{fill:url(#SVGID_00000164499333670136011730000001257090760327800995_);}
	.st12{fill:url(#SVGID_00000116938030952662462290000007531787215712638118_);}
	.st13{fill:url(#SVGID_00000181049317979319399190000009073192928049610134_);}
	.st14{fill:url(#SVGID_00000114791404030369189640000002119914230304192438_);}
	.st15{fill:url(#SVGID_00000168828142640603038350000014423146037229909153_);}
	.st16{fill:url(#SVGID_00000178890490645103148160000010847727597712048771_);}
	.st17{fill:url(#SVGID_00000022542734357395790970000002089636330006432934_);}
	.st18{fill:url(#SVGID_00000057129262291988359350000013618218391783026082_);}
	.st19{fill:url(#SVGID_00000126291522824436356820000008144227626616904344_);}
	.st20{fill:url(#SVGID_00000059294406805114784590000011686251812075531935_);}
	.st21{fill:url(#SVGID_00000098183219286060915410000011872729377789391766_);}
	.st22{fill:url(#SVGID_00000016777546847152426110000008521853315377493636_);}
	.st23{fill:url(#SVGID_00000076581499287175990940000003657470189940961409_);}
	.st24{fill:url(#SVGID_00000032608958967420137340000015108391831677855895_);}
	.st25{fill:url(#SVGID_00000026132854815203172020000013152741664110529667_);}
	.st26{fill:none;}
	.st27{fill:#FF0000;}
	.st28{fill:url(#SVGID_00000160888304898364275120000016756089053462558871_);}
	.st29{fill:url(#SVGID_00000180347344263912279110000009738225164010978946_);}
	.st30{fill:#2482C2;}
	.st31{fill:#545454;}
	.st32{fill:url(#SVGID_00000111164378564114948120000008558574100864760221_);}
	.st33{fill:url(#SVGID_00000086657718005254653410000008781325958964202143_);}
	.st34{fill:url(#SVGID_00000009588506994500793700000004963057747052931996_);}
	.st35{fill:url(#SVGID_00000172420936925032719000000004117983921778246287_);}
	.st36{fill:url(#SVGID_00000104701541087578880460000011350119721555515057_);}
	.st37{fill:none;stroke:#000000;stroke-width:13;stroke-miterlimit:10;}
	.st38{fill:none;stroke:#000000;stroke-width:2;stroke-miterlimit:10;}
	.st39{fill:none;stroke:#FF0000;stroke-width:13;stroke-miterlimit:10;}
	.st40{font-family:'Montserrat-SemiBold';}
	.st41{font-size:27.7674px;}
	.st42{fill:none;stroke:#FF0000;stroke-width:4;stroke-miterlimit:10;}
</style>
<g>
	<g>
		<path class="st27" d="M259.29,168.54h17.79v-18.26C277.25,150.29,260.13,151.28,259.29,168.54z"/>
		<path class="st27" d="M259.29,172.89h17.96v18.09h-17.96V172.89z"/>
		<path class="st27" d="M280.6,150.29v18.26h17.78C297.72,151.28,280.6,150.29,280.6,150.29z"/>
		<path class="st27" d="M280.6,172.89h17.94v18.09H280.6V172.89z"/>
		<g>
			<path class="st27" d="M282.1,60.84l-47.48,58.62V97.35H217v43.89l-49.33,60.8l111.07-81.06l151.5,112.39
				c-137.91-42.71-310.56-20.11-367.43,43.2c-64.76,76.89,53.19,127.31,53.19,127.31c-52.68-45.73-50.51-90.45-19.8-120.26
				c45.64-41.88,100.66-50.25,127.68-55.61c116.09-20.11,203.51,9.37,220.8,15.91l1.01,0.66
				c-214.76-52.42-309.73,26.31-309.73,26.31c159.05-68.85,319.28-18.93,319.28-18.93L282.1,60.84z"/>
		</g>
		<g>
			<g>
				<g transform="translate(91.613048, 208.670141)">
					<g>
						<path class="st27" d="M51.24,88.81h26.12c7.6,0,13.52,1.82,17.72,5.46c4.24,3.61,6.37,8.74,6.37,15.41
							c0,7-2.14,12.45-6.37,16.32c-4.2,3.89-10.12,5.81-17.72,5.81H66.51v16.81H51.24V88.81z M66.51,100.78v19.05h10.08
							c3.36,0,5.95-0.81,7.77-2.45c1.82-1.68,2.73-4.08,2.73-7.21c0-3.08-0.91-5.41-2.73-7c-1.82-1.58-4.41-2.38-7.77-2.38H66.51z"
							/>
					</g>
				</g>
			</g>
			<g>
				<g transform="translate(107.983353, 208.670141)">
					<g>
						<path class="st27" d="M122.95,102.53v7.77c3.26-5.5,8.26-8.3,14.99-8.4v13.31c-4.25-0.42-7.7,0.28-10.36,2.1
							c-2.66,1.79-4.2,4.32-4.62,7.63v23.67h-14.78v-46.08H122.95z"/>
					</g>
				</g>
			</g>
			<g>
				<g transform="translate(119.532799, 208.670141)">
					<g>
						<path class="st27" d="M150.21,83.76c1.49-1.49,3.36-2.24,5.6-2.24c2.28,0,4.15,0.75,5.6,2.24c1.44,1.45,2.17,3.33,2.17,5.6
							c0,2.24-0.74,4.11-2.17,5.6c-1.45,1.51-3.33,2.24-5.6,2.24c-2.24,0-4.11-0.74-5.6-2.24c-1.45-1.49-2.17-3.36-2.17-5.6
							C148.04,87.09,148.76,85.22,150.21,83.76z M163.1,148.61h-14.71v-46.08h14.71V148.61z"/>
					</g>
				</g>
			</g>
			<g>
				<g transform="translate(128.871901, 208.670141)">
					<g>
						<path class="st27" d="M242.47,101.9c5.04,0,9.05,1.61,12.05,4.83c2.98,3.22,4.48,7.49,4.48,12.82v29.06h-14.71v-24.93
							c0-2.75-0.74-4.9-2.17-6.44c-1.4-1.58-3.33-2.38-5.74-2.38c-2.77,0.05-4.95,1.1-6.58,3.15c-1.59,2.01-2.38,4.6-2.38,7.77
							v22.83h-14.78v-24.93c0-2.75-0.7-4.9-2.1-6.44c-1.4-1.58-3.33-2.38-5.74-2.38c-2.8,0.05-5.04,1.1-6.72,3.15
							c-1.65,2.07-2.45,4.66-2.45,7.77v22.83h-14.71v-46.08h14.71v7.63c3.12-5.41,8.19-8.16,15.2-8.26c3.68,0,6.88,0.95,9.59,2.8
							c2.7,1.82,4.64,4.34,5.81,7.56C229.2,105.46,234.62,102.01,242.47,101.9z"/>
					</g>
				</g>
			</g>
			<g>
				<g transform="translate(152.044756, 208.670141)">
					<g>
						<path class="st27" d="M281.77,102.04c7.98,0,13.97,2.45,18,7.35c4.01,4.9,5.76,11.63,5.25,20.17h-32.36
							c0.7,2.71,1.98,4.81,3.85,6.3c1.91,1.51,4.24,2.24,7,2.24c4.2,0,7.86-1.56,11-4.69l7.77,7.56c-4.95,5.43-11.66,8.12-20.1,8.12
							c-7.48,0-13.43-2.12-17.86-6.37c-4.39-4.29-6.58-9.96-6.58-17.02c0-7.09,2.19-12.82,6.58-17.16
							C268.76,104.21,274.57,102.04,281.77,102.04z M272.38,121.58h18.42c0-2.75-0.82-4.99-2.45-6.72
							c-1.59-1.72-3.71-2.59-6.37-2.59c-2.52,0-4.66,0.84-6.37,2.52C273.93,116.47,272.84,118.74,272.38,121.58z"/>
					</g>
				</g>
			</g>
		</g>
		<text transform="matrix(1 0 0 1 137.9524 390.7656)" class="st40 st41">Property Management</text>
	</g>
	<circle class="st42" cx="269" cy="269" r="248.79"/>
</g>
</svg>
